<?xml version="1.0" encoding="utf-8"?>
<!-- Generator: Adobe Illustrator 17.0.0, SVG Export Plug-In . SVG Version: 6.00 Build 0)  -->
<!DOCTYPE svg PUBLIC "-//W3C//DTD SVG 1.1//EN" "http://www.w3.org/Graphics/SVG/1.1/DTD/svg11.dtd">
<svg version="1.1" id="Layer_1" xmlns="http://www.w3.org/2000/svg" xmlns:xlink="http://www.w3.org/1999/xlink" x="0px" y="0px"
	 width="80.75px" height="51px" viewBox="0 0 80.75 51" enable-background="new 0 0 80.75 51" xml:space="preserve">
<text transform="matrix(1 0 0 1 4.1681 46.6758)" fill="#FFFFFF" font-family="'Capriola-Regular'" font-size="10">DATA SKETCH</text>
<g id="Stipple_Large">
	<polygon fill="none" stroke="#E30613" stroke-width="0.5" stroke-miterlimit="10" points="7.35,8.407 23.737,8.407 40.125,19.991 
		23.737,31.574 7.35,31.574 	"/>
	<polyline fill="none" stroke="#E30613" stroke-width="0.5" stroke-miterlimit="10" points="72.899,8.407 56.512,8.407 
		56.512,19.991 72.899,19.991 72.899,31.574 56.512,31.574 	"/>
	<g>
		<circle fill="#FFFFFF" cx="7.35" cy="8.409" r="2.149"/>
		<circle fill="#FFFFFF" cx="7.35" cy="19.992" r="2.149"/>
		<circle fill="#FFFFFF" cx="7.35" cy="31.576" r="2.149"/>
		<circle fill="#FFFFFF" cx="23.737" cy="8.409" r="2.149"/>
		<circle fill="#FFFFFF" cx="23.737" cy="19.992" r="2.149"/>
		<circle fill="#FFFFFF" cx="23.737" cy="31.576" r="2.149"/>
		<circle fill="#FFFFFF" cx="40.125" cy="8.409" r="2.149"/>
		<circle fill="#FFFFFF" cx="40.125" cy="19.992" r="2.149"/>
		<circle fill="#FFFFFF" cx="40.125" cy="31.576" r="2.149"/>
		<circle fill="#FFFFFF" cx="56.512" cy="8.409" r="2.149"/>
		<circle fill="#FFFFFF" cx="56.512" cy="19.992" r="2.149"/>
		<circle fill="#FFFFFF" cx="56.512" cy="31.576" r="2.149"/>
		<circle fill="#FFFFFF" cx="72.899" cy="8.409" r="2.149"/>
		<circle fill="#FFFFFF" cx="72.899" cy="19.992" r="2.149"/>
		<circle fill="#FFFFFF" cx="72.899" cy="31.576" r="2.149"/>
	</g>
</g>
</svg>
